<svg width="34" height="34" viewBox="0 0 34 34" fill="none" xmlns="http://www.w3.org/2000/svg">
<rect x="0.5" y="0.5" width="33" height="33" fill="black" fill-opacity="0.25" stroke="white"/>
<g clip-path="url(#clip0_6_339)">
<path d="M17.0016 7C14.4946 7 14.1792 7.01082 13.1954 7.05721C12.4299 7.07323 11.6727 7.22275 10.9558 7.49943C10.3397 7.73656 9.78176 8.1103 9.3216 8.59416C8.85199 9.06883 8.48812 9.64282 8.25514 10.2764C7.98627 11.0148 7.8415 11.795 7.82706 12.5834C7.7835 13.5962 7.77148 13.9194 7.77148 16.5C7.77148 19.0806 7.782 19.4023 7.82706 20.4166C7.84262 21.2045 7.98787 21.9841 8.25665 22.722C8.48814 23.3557 8.85105 23.9298 9.32009 24.4043C9.7808 24.8882 10.3385 25.2629 10.9543 25.5021C11.6718 25.7782 12.4295 25.9272 13.1954 25.9428C14.1792 25.9892 14.4931 26 17.0001 26C19.507 26 19.8194 25.9892 20.8047 25.9428C21.5706 25.9272 22.3283 25.7782 23.0458 25.5021C23.6596 25.257 24.217 24.883 24.6825 24.4038C25.148 23.9246 25.5114 23.3507 25.7495 22.7189C26.0168 21.9806 26.162 21.2013 26.1791 20.4135C26.2226 19.4007 26.2346 19.0776 26.2346 16.4969C26.2346 13.9163 26.2226 13.5931 26.1791 12.5803C26.162 11.792 26.0168 11.0123 25.7495 10.2734C25.5176 9.6395 25.1542 9.06538 24.6845 8.59106C24.2246 8.10685 23.6666 7.73306 23.0503 7.49634C22.3308 7.22003 21.571 7.07154 20.8032 7.05721C19.8179 7.01082 19.5055 7 16.9986 7H17.0016ZM16.1724 8.71167H17.0016C19.4649 8.71167 19.7563 8.72095 20.7296 8.76733C21.3149 8.77419 21.8946 8.88455 22.4435 9.09359C22.8442 9.24598 23.2066 9.48905 23.5039 9.80485C23.8101 10.1114 24.0461 10.4843 24.1949 10.8965C24.3979 11.4615 24.5051 12.0583 24.5118 12.6607C24.5569 13.6611 24.5659 13.9626 24.5659 16.4985C24.5659 19.0343 24.5569 19.3342 24.5118 20.3362C24.5053 20.9381 24.3981 21.5344 24.1949 22.0989C24.0411 22.5083 23.8059 22.88 23.5043 23.1903C23.2026 23.5005 22.8413 23.7423 22.4435 23.9002C21.895 24.1109 21.315 24.2218 20.7296 24.228C19.7578 24.2744 19.4649 24.2837 17.0016 24.2837C14.5382 24.2837 14.2453 24.2744 13.272 24.228C12.6867 24.2207 12.107 24.1098 11.5581 23.9002C11.157 23.7485 10.7941 23.506 10.4962 23.1905C10.19 22.8843 9.95436 22.5113 9.80676 22.0989C9.60318 21.5339 9.49547 20.9372 9.48832 20.3346C9.44476 19.3327 9.43575 19.0327 9.43575 16.4954C9.43575 13.958 9.44476 13.6596 9.48832 12.6576C9.49456 12.055 9.60231 11.4581 9.80676 10.8934C9.95436 10.481 10.19 10.108 10.4962 9.80176C10.7943 9.48625 11.1571 9.24325 11.5581 9.09049C12.1071 8.88158 12.6867 8.77072 13.272 8.7627C14.1236 8.72404 14.4526 8.71167 16.1724 8.71012V8.71167ZM21.9268 10.2888C21.7075 10.2888 21.4931 10.3558 21.3108 10.4812C21.1284 10.6067 20.9864 10.785 20.9025 10.9936C20.8186 11.2022 20.7968 11.4317 20.8397 11.6531C20.8826 11.8745 20.9883 12.0778 21.1435 12.2374C21.2986 12.3969 21.4963 12.5055 21.7114 12.5493C21.9266 12.5932 22.1495 12.5703 22.352 12.4837C22.5545 12.3971 22.7276 12.2506 22.8492 12.0628C22.9708 11.8749 23.0356 11.6541 23.0353 11.4284C23.0353 11.2786 23.0066 11.1303 22.9509 10.9919C22.8951 10.8536 22.8135 10.7279 22.7105 10.622C22.6076 10.5162 22.4853 10.4323 22.3509 10.3751C22.2164 10.3179 22.0723 10.2886 21.9268 10.2888ZM17.0016 11.6217C16.0643 11.6217 15.1481 11.9078 14.3687 12.4438C13.5894 12.9799 12.982 13.7417 12.6233 14.6331C12.2647 15.5245 12.1708 16.5054 12.3537 17.4517C12.5365 18.398 12.9879 19.2673 13.6506 19.9495C14.3134 20.6318 15.1578 21.0964 16.077 21.2846C16.9963 21.4728 17.9491 21.3762 18.8151 21.007C19.681 20.6378 20.4211 20.0125 20.9419 19.2103C21.4626 18.408 21.7405 17.4648 21.7405 16.5C21.7401 15.2063 21.2407 13.9657 20.3521 13.0509C19.4634 12.1362 18.2583 11.6221 17.0016 11.6217ZM17.0016 13.3333C17.6102 13.3324 18.2054 13.5174 18.7118 13.8648C19.2183 14.2122 19.6133 14.7064 19.8468 15.285C20.0803 15.8635 20.1419 16.5004 20.0237 17.1149C19.9055 17.7295 19.6129 18.2942 19.1829 18.7375C18.7528 19.1809 18.2047 19.4829 17.6079 19.6055C17.011 19.728 16.3923 19.6656 15.8299 19.4261C15.2675 19.1865 14.7868 18.7806 14.4486 18.2598C14.1104 17.7389 13.9299 17.1265 13.9299 16.5C13.9315 15.662 14.2556 14.8589 14.8314 14.2665C15.4071 13.6741 16.1875 13.3407 17.0016 13.3395V13.3333Z" fill="white"/>
</g>
<defs>
<clipPath id="clip0_6_339">
<rect width="18.4571" height="19" fill="white" transform="translate(7.77148 7)"/>
</clipPath>
</defs>
</svg>
