<svg width="590" height="45" viewBox="0 0 590 45" fill="none" xmlns="http://www.w3.org/2000/svg">
<path d="M34.9295 34.9296H43.6619V26.1971H52.3942C49.0177 22.7624 47.0966 20.8995 43.6619 17.4648V0H34.9295V17.4648H8.73237C12.1671 20.8995 14.0882 22.7624 17.4647 26.1971H34.9295V34.9296ZM8.73237 17.4648V0H0V8.73239L8.73237 17.4648Z" fill="#232A2E"/>
<path d="M61.1266 34.9296H69.859V26.1971H104.788V34.9296H113.521V0H87.3237L78.5913 8.73239H104.788V17.4648H69.859L61.1266 26.1971V34.9296Z" fill="#232A2E"/>
<path d="M139.718 34.9296H148.45V8.73239H157.183L165.915 0H148.45L139.718 8.73239V34.9296ZM122.253 34.9296H130.986V8.73239H139.718V0H130.986L122.253 8.73239V34.9296ZM165.915 34.9296H174.647V0H165.915V34.9296Z" fill="#232A2E"/>
<path d="M207.932 34.9294H239.903L244.259 30.5729L239.903 26.2115H215.2V24.7561H239.903L244.259 20.3997L239.903 16.0383H207.932V34.9294ZM209.388 33.4788V17.4937H239.282L242.188 20.3997L239.282 23.3056H215.2C214.399 23.3056 213.744 23.9605 213.744 24.7561V26.2115C213.744 27.012 214.399 27.667 215.2 27.667H239.282L242.188 30.5729L239.282 33.4788H209.388Z" fill="#232A2E"/>
<path d="M274.88 34.9294H282.148V30.5729L286.504 34.9294H299.583L303.945 30.5729V34.9294H311.207V29.8452L307.573 26.2115H311.207V19.672L307.573 16.0383H274.88V34.9294ZM276.336 33.4788V17.4937H306.957L309.756 20.2881V24.7561H307.573C306.996 24.7561 306.448 25.12 306.23 25.6682C306.011 26.2115 306.123 26.8277 306.559 27.2304L309.756 30.4613V33.4788H305.395V30.5729C305.395 29.9907 305.031 29.4425 304.488 29.229C304.304 29.1563 304.124 29.1175 303.945 29.1175C303.581 29.1175 303.178 29.263 302.926 29.5541L298.967 33.4788H287.125L283.162 29.5541C282.909 29.263 282.511 29.1175 282.148 29.1175C281.963 29.1175 281.784 29.1563 281.599 29.229C281.056 29.4425 280.692 29.9907 280.692 30.5729V33.4788H276.336ZM282.148 27.667H303.945C304.74 27.667 305.395 27.012 305.395 26.2115V24.7561C305.395 23.9605 304.74 23.3056 303.945 23.3056H282.148C281.347 23.3056 280.692 23.9605 280.692 24.7561V26.2115C280.692 27.012 281.347 27.667 282.148 27.667ZM282.148 26.2115V24.7561H303.945V26.2115H282.148Z" fill="#232A2E"/>
<path d="M341.829 34.9294H378.155V26.2115H349.096V24.7561H378.155V16.0383H341.829V34.9294ZM343.284 33.4788V17.4937H376.705V23.3056H349.096C348.295 23.3056 347.64 23.9605 347.64 24.7561V26.2115C347.64 27.012 348.295 27.667 349.096 27.667H376.705V33.4788H343.284Z" fill="#232A2E"/>
<path d="M408.777 20.3997V34.9294H416.044V30.5729C417.752 32.2757 418.693 33.2218 420.401 34.9294H433.48C435.187 33.2218 436.133 32.2757 437.841 30.5729V34.9294H445.104V20.3997C443.396 18.692 442.45 17.746 440.747 16.0383H413.138C411.431 17.746 410.485 18.692 408.777 20.3997ZM410.232 33.4788V21.0158L413.72 17.4937H440.126L443.653 21.0158V33.4788H439.292V30.5729C439.292 29.9907 438.928 29.4425 438.384 29.229C438.2 29.1563 438.021 29.1175 437.841 29.1175C437.477 29.1175 437.075 29.263 436.822 29.5541L432.864 33.4788H420.983L417.058 29.5541C416.806 29.263 416.408 29.1175 416.044 29.1175C415.86 29.1175 415.68 29.1563 415.496 29.229C414.953 29.4425 414.589 29.9907 414.589 30.5729V33.4788H410.232ZM416.044 27.667H437.841C438.637 27.667 439.292 27.012 439.292 26.2115V24.7561C439.292 23.9605 438.637 23.3056 437.841 23.3056H416.044C415.244 23.3056 414.589 23.9605 414.589 24.7561V26.2115C414.589 27.012 415.244 27.667 416.044 27.667ZM416.044 26.2115V24.7561H437.841V26.2115H416.044Z" fill="#232A2E"/>
<path d="M475.725 34.9294H478.631L482.992 30.5729V34.9294H512.052V30.5729L507.695 26.2115H482.992V24.7561H507.695L512.052 20.3997V16.0383H482.992V20.3997L478.631 16.0383H475.725V34.9294ZM477.181 33.4788V17.4937H478.049L481.974 21.4184C482.265 21.7095 482.629 21.8502 482.992 21.8502C483.172 21.8502 483.39 21.8162 483.536 21.7435C484.079 21.5251 484.443 20.9818 484.443 20.3997V17.4937H510.601V19.7836L507.113 23.3056H482.992C482.192 23.3056 481.537 23.9605 481.537 24.7561V26.2115C481.537 27.012 482.192 27.667 482.992 27.667H507.113L510.601 31.189V33.4788H484.443V30.5729C484.443 29.9907 484.079 29.4425 483.536 29.229C483.356 29.1563 483.172 29.1175 482.992 29.1175C482.629 29.1175 482.265 29.263 481.974 29.5541L478.049 33.4788H477.181Z" fill="#232A2E"/>
<path d="M542.673 20.3997V24.7561H579V16.0383H547.035C545.327 17.746 544.347 18.692 542.673 20.3997ZM542.673 34.9294H574.644C576.312 33.2218 577.292 32.2757 579 30.5729V26.2115H542.673V34.9294ZM544.129 33.4788V27.667H577.549V29.9519L574.023 33.4788H544.129ZM544.129 23.3056V21.0158L547.617 17.4937H577.549V23.3056H544.129Z" fill="#232A2E"/>
<path d="M45.9295 44.9296H54.6619V36.1971H63.3942C60.0177 32.7624 58.0966 30.8995 54.6619 27.4648V10H45.9295V27.4648H19.7324C23.1671 30.8995 25.0882 32.7624 28.4647 36.1971H45.9295V44.9296ZM19.7324 27.4648V10H11V18.7324L19.7324 27.4648Z" fill="white"/>
<path d="M72.1266 44.9296H80.859V36.1971H115.788V44.9296H124.521V10H98.3237L89.5913 18.7324H115.788V27.4648H80.859L72.1266 36.1971V44.9296Z" fill="white"/>
<path d="M150.718 44.9296H159.45V18.7324H168.183L176.915 10H159.45L150.718 18.7324V44.9296ZM133.253 44.9296H141.986V18.7324H150.718V10H141.986L133.253 18.7324V44.9296ZM176.915 44.9296H185.647V10H176.915V44.9296Z" fill="white"/>
<path d="M218.932 44.9294H250.903L255.259 40.5729L250.903 36.2115H226.2V34.7561H250.903L255.259 30.3997L250.903 26.0383H218.932V44.9294ZM220.388 43.4788V27.4937H250.282L253.188 30.3997L250.282 33.3056H226.2C225.399 33.3056 224.744 33.9605 224.744 34.7561V36.2115C224.744 37.012 225.399 37.667 226.2 37.667H250.282L253.188 40.5729L250.282 43.4788H220.388Z" fill="white"/>
<path d="M285.88 44.9294H293.148V40.5729L297.504 44.9294H310.583L314.945 40.5729V44.9294H322.207V39.8452L318.573 36.2115H322.207V29.672L318.573 26.0383H285.88V44.9294ZM287.336 43.4788V27.4937H317.957L320.756 30.2881V34.7561H318.573C317.996 34.7561 317.448 35.12 317.23 35.6682C317.011 36.2115 317.123 36.8277 317.559 37.2304L320.756 40.4613V43.4788H316.395V40.5729C316.395 39.9907 316.031 39.4425 315.488 39.229C315.304 39.1563 315.124 39.1175 314.945 39.1175C314.581 39.1175 314.178 39.263 313.926 39.5541L309.967 43.4788H298.125L294.162 39.5541C293.909 39.263 293.511 39.1175 293.148 39.1175C292.963 39.1175 292.784 39.1563 292.599 39.229C292.056 39.4425 291.692 39.9907 291.692 40.5729V43.4788H287.336ZM293.148 37.667H314.945C315.74 37.667 316.395 37.012 316.395 36.2115V34.7561C316.395 33.9605 315.74 33.3056 314.945 33.3056H293.148C292.347 33.3056 291.692 33.9605 291.692 34.7561V36.2115C291.692 37.012 292.347 37.667 293.148 37.667ZM293.148 36.2115V34.7561H314.945V36.2115H293.148Z" fill="white"/>
<path d="M352.829 44.9294H389.155V36.2115H360.096V34.7561H389.155V26.0383H352.829V44.9294ZM354.284 43.4788V27.4937H387.705V33.3056H360.096C359.295 33.3056 358.64 33.9605 358.64 34.7561V36.2115C358.64 37.012 359.295 37.667 360.096 37.667H387.705V43.4788H354.284Z" fill="white"/>
<path d="M419.777 30.3997V44.9294H427.044V40.5729C428.752 42.2757 429.693 43.2218 431.401 44.9294H444.48C446.187 43.2218 447.133 42.2757 448.841 40.5729V44.9294H456.104V30.3997C454.396 28.692 453.45 27.746 451.747 26.0383H424.138C422.431 27.746 421.485 28.692 419.777 30.3997ZM421.232 43.4788V31.0158L424.72 27.4937H451.126L454.653 31.0158V43.4788H450.292V40.5729C450.292 39.9907 449.928 39.4425 449.384 39.229C449.2 39.1563 449.021 39.1175 448.841 39.1175C448.477 39.1175 448.075 39.263 447.822 39.5541L443.864 43.4788H431.983L428.058 39.5541C427.806 39.263 427.408 39.1175 427.044 39.1175C426.86 39.1175 426.68 39.1563 426.496 39.229C425.953 39.4425 425.589 39.9907 425.589 40.5729V43.4788H421.232ZM427.044 37.667H448.841C449.637 37.667 450.292 37.012 450.292 36.2115V34.7561C450.292 33.9605 449.637 33.3056 448.841 33.3056H427.044C426.244 33.3056 425.589 33.9605 425.589 34.7561V36.2115C425.589 37.012 426.244 37.667 427.044 37.667ZM427.044 36.2115V34.7561H448.841V36.2115H427.044Z" fill="white"/>
<path d="M486.725 44.9294H489.631L493.992 40.5729V44.9294H523.052V40.5729L518.695 36.2115H493.992V34.7561H518.695L523.052 30.3997V26.0383H493.992V30.3997L489.631 26.0383H486.725V44.9294ZM488.181 43.4788V27.4937H489.049L492.974 31.4184C493.265 31.7095 493.629 31.8502 493.992 31.8502C494.172 31.8502 494.39 31.8162 494.536 31.7435C495.079 31.5251 495.443 30.9818 495.443 30.3997V27.4937H521.601V29.7836L518.113 33.3056H493.992C493.192 33.3056 492.537 33.9605 492.537 34.7561V36.2115C492.537 37.012 493.192 37.667 493.992 37.667H518.113L521.601 41.189V43.4788H495.443V40.5729C495.443 39.9907 495.079 39.4425 494.536 39.229C494.356 39.1563 494.172 39.1175 493.992 39.1175C493.629 39.1175 493.265 39.263 492.974 39.5541L489.049 43.4788H488.181Z" fill="white"/>
<path d="M553.673 30.3997V34.7561H590V26.0383H558.035C556.327 27.746 555.347 28.692 553.673 30.3997ZM553.673 44.9294H585.644C587.312 43.2218 588.292 42.2757 590 40.5729V36.2115H553.673V44.9294ZM555.129 43.4788V37.667H588.549V39.9519L585.023 43.4788H555.129ZM555.129 33.3056V31.0158L558.617 27.4937H588.549V33.3056H555.129Z" fill="white"/>
</svg>
