<svg width="34" height="34" viewBox="0 0 34 34" fill="none" xmlns="http://www.w3.org/2000/svg">
<rect x="0.5" y="0.5" width="33" height="33" fill="black" fill-opacity="0.25" stroke="white"/>
<g clip-path="url(#clip0_6_335)">
<path d="M16.4999 7.00015C11.2534 7.00015 7 11.2534 7 16.5001C7 21.7469 11.2534 26 16.4999 26C21.7471 26 26 21.747 26 16.5001C26 11.2537 21.7471 7.00056 16.4998 7.00056L16.4999 7V7.00015ZM20.8566 20.7019C20.6864 20.9809 20.3212 21.0695 20.0421 20.8981C17.8116 19.5356 15.0037 19.2271 11.6968 19.9827C11.3782 20.0552 11.0605 19.8556 10.9879 19.5368C10.9149 19.218 11.1138 18.9004 11.4333 18.8278C15.0521 18.001 18.1562 18.357 20.6604 19.8874C20.9395 20.0586 21.028 20.4227 20.8566 20.7019ZM22.0194 18.1152C21.8049 18.4636 21.3489 18.5736 21.0007 18.3593C18.4471 16.7896 14.5547 16.335 11.5342 17.252C11.1425 17.3703 10.7288 17.1496 10.61 16.7585C10.492 16.3668 10.7128 15.954 11.1039 15.8349C14.5539 14.788 18.843 15.2951 21.7756 17.0972C22.1239 17.3116 22.2338 17.7676 22.0195 18.1155V18.1153L22.0194 18.1152ZM22.1193 15.4216C19.0574 13.603 14.0059 13.4358 11.0826 14.3231C10.6132 14.4654 10.1168 14.2005 9.97458 13.731C9.83234 13.2613 10.0971 12.7652 10.5668 12.6226C13.9225 11.6038 19.501 11.8006 23.0262 13.8934C23.4493 14.1441 23.5877 14.6893 23.337 15.1109C23.0873 15.5332 22.5405 15.6724 22.1197 15.4216H22.1193Z" fill="white"/>
</g>
<defs>
<clipPath id="clip0_6_335">
<rect width="19" height="19" fill="white" transform="translate(7 7)"/>
</clipPath>
</defs>
</svg>
