<svg width="34" height="34" viewBox="0 0 34 34" fill="none" xmlns="http://www.w3.org/2000/svg">
<rect x="0.5" y="0.5" width="33" height="33" fill="black" fill-opacity="0.25" stroke="white"/>
<g clip-path="url(#clip0_6_343)">
<path fill-rule="evenodd" clip-rule="evenodd" d="M27.7754 12.6013C27.7754 12.6013 27.5606 11.0848 26.8996 10.419C26.062 9.54323 25.1241 9.53756 24.6954 9.48682C21.6191 9.2627 16.9987 9.2627 16.9987 9.2627H16.9906C16.9906 9.2627 12.3722 9.2627 9.29425 9.48682C8.86388 9.53917 7.92723 9.54285 7.09002 10.419C6.42865 11.0848 6.21834 12.6013 6.21834 12.6013C6.21834 12.6013 5.99951 14.3808 5.99951 16.164V17.8315C5.99951 19.611 6.21834 21.3943 6.21834 21.3943C6.21834 21.3943 6.43312 22.9107 7.09002 23.5778C7.92723 24.4535 9.0275 24.4251 9.51879 24.5185C11.2801 24.6866 17.0003 24.7373 17.0003 24.7373C17.0003 24.7373 21.6247 24.7292 24.7011 24.5091C25.1314 24.4584 26.0677 24.4531 26.9053 23.5769C27.5667 22.9111 27.781 21.393 27.781 21.393C27.781 21.393 27.9999 19.6135 27.9999 17.8303V16.1628C27.9955 14.3833 27.7766 12.6001 27.7766 12.6001L27.7754 12.6013ZM14.7198 19.8547V13.6716L20.6629 16.7735L14.7198 19.8547Z" fill="white"/>
</g>
<defs>
<clipPath id="clip0_6_343">
<rect width="22" height="22" fill="white" transform="translate(6 6)"/>
</clipPath>
</defs>
</svg>
